<svg id="Capa_1" data-name="Capa 1" xmlns="http://www.w3.org/2000/svg" viewBox="0 0 400 400"><defs><style>.cls-1{fill:#57758c;}.cls-2{fill:#5bc0e6;}.cls-3{fill:#dbf1fa;}.cls-4{fill:#d0e3b1;}.cls-5{fill:#99c355;}.cls-6{fill:#edf0f2;}</style></defs><title>iconos</title><path class="cls-1" d="M310.34,331.56,200,372.94,89.66,331.56,0,366v14.11A8.62,8.62,0,0,0,12.23,388l78-36L197,392a8.66,8.66,0,0,0,6.06,0l107.25-40.22,78,30A8.61,8.61,0,0,0,400,373.76V359.14Z"/><path class="cls-2" d="M200,379.83l110.34-41.38,77.94,30a8.61,8.61,0,0,0,11.72-8V137.48a8.62,8.62,0,0,0-5.53-8L310.34,97.08,200,131.56,89.66,97.08,0,131.56v234.8a8.62,8.62,0,0,0,12.23,7.83l77.43-35.74Z"/><path class="cls-3" d="M400,228.11H296.55l-20.69-34.48,27.78-94.46-63.84,20-26,67.61H145.5l.15-21.92,29.81-40.92-37.53-13L89.66,131.56H0v41.38H89.66V235L0,240.66v55.5l89.66-6v48.27l55.17,20.69v-69l.36-55.17h34.12l48.28,33.79V369.49l82.75-31,6.9,2.66V283.28H400Z"/><ellipse class="cls-4" cx="310.34" cy="338.45" rx="48.28" ry="20.69"/><path class="cls-5" d="M365.52,241.9a55.18,55.18,0,0,0-110.35,0c0,41.38,55.17,89.66,55.17,89.66S365.52,283.28,365.52,241.9Z"/><circle class="cls-6" cx="310.34" cy="241.9" r="20.69"/><ellipse class="cls-4" cx="89.66" cy="110.87" rx="48.28" ry="20.69"/><path class="cls-5" d="M91.38,7.42A8.62,8.62,0,0,0,82.76,16v94.83H96.55V62.59H156.9A8.62,8.62,0,0,0,165.52,54V7.42Z"/></svg>