<svg id="Capa_1" data-name="Capa 1" xmlns="http://www.w3.org/2000/svg" viewBox="0 0 400 400"><defs><style>.cls-1{fill:#5bc0e6;}.cls-2{fill:#fff;}.cls-3{fill:#99c355;}</style></defs><title>iconos</title><path class="cls-1" d="M183.73.65C87.74,8.24,9.65,85.3.86,181.18A199.51,199.51,0,0,0,33,310L4.93,386.55a6.9,6.9,0,0,0,8.66,8.92L93.07,369a199.49,199.49,0,0,0,127.61,30c95.12-9.58,171.13-87.35,178.67-182.65A200,200,0,0,0,183.73.65Z"/><path class="cls-2" d="M200,310.34a13.79,13.79,0,0,1-13.79-13.79V275.86a13.8,13.8,0,0,1,27.59,0v20.69A13.79,13.79,0,0,1,200,310.34Z"/><path class="cls-2" d="M200,234.69a13.8,13.8,0,0,1-13.79-13.79v-14c0-19.6,9.34-40.49,25-50.58a20.6,20.6,0,0,0,9.49-17.7c-.15-11-9.87-21.23-20.38-21.38H200a20,20,0,0,0-14.07,6,22.3,22.3,0,0,0-6.66,15.73,13.79,13.79,0,1,1-27.58,0,50,50,0,0,1,14.87-35.36A47.33,47.33,0,0,1,200,89.66h.66c25.43.35,47.23,22.6,47.59,48.58a48,48,0,0,1-22.12,41.26c-7.62,4.92-12.35,17.36-12.35,27.4v14A13.8,13.8,0,0,1,200,234.69Z"/><path class="cls-3" d="M200,379.31a6.9,6.9,0,0,1,0-13.79c91.27,0,165.52-74.26,165.52-165.52S291.27,34.48,200,34.48,34.49,108.74,34.49,200a6.9,6.9,0,0,1-13.8,0c0-98.87,80.44-179.31,179.31-179.31S379.31,101.13,379.31,200,298.87,379.31,200,379.31Z"/></svg>