<svg id="Capa_1" data-name="Capa 1" xmlns="http://www.w3.org/2000/svg" viewBox="0 0 400 400"><defs><style>.cls-1{fill:#a9cd70;}.cls-2{fill:#c8dfa3;}.cls-3{fill:#b5d383;}.cls-4{fill:#99c355;}.cls-5{fill:#57758c;}.cls-6{fill:#e7f1d6;}.cls-7{fill:#5bc0e6;}.cls-8{fill:#d9e9c0;}.cls-9{fill:#68c5e8;}</style></defs><title>iconos</title><path class="cls-1" d="M116,36h48V22.42A18.42,18.42,0,0,0,145.58,4h0a18.48,18.48,0,0,0-10.22,3.09L116,20Z"/><path class="cls-2" d="M380,167a19.93,19.93,0,0,1-20,19.71H233.33v-20l26.67-8.9,13.33-4.44,4.36-21.76a26.64,26.64,0,0,1,12.43-17.64L300,108l19.39-11.63L340,106.67,358.72,116a26.67,26.67,0,0,1,11.92,11.91l.42.83A84.94,84.94,0,0,1,380,167Z"/><path class="cls-3" d="M340,106.67v51.66l-33.33,8.34v20H300V108l19.39-11.63Z"/><path class="cls-1" d="M289.51,100a16.18,16.18,0,0,1-16.18-16.18h0A16.26,16.26,0,0,1,275,76.58l5-9.91V58.83A38.79,38.79,0,0,1,318.78,20h1A40,40,0,0,1,360,59.89v6.78l5,9.91A16.18,16.18,0,0,1,350.48,100h-61Z"/><path class="cls-4" d="M180,393.33H393.33V220h-220Z"/><path class="cls-1" d="M173.33,186.67h220V220h-220Z"/><path class="cls-5" d="M106.67,193.33H180v-89a26.68,26.68,0,0,0-7.81-18.86L153.33,66.67H126.67L104.45,88.88A26.67,26.67,0,0,0,98,99.31l-18,54Z"/><path class="cls-6" d="M160,33.33v20a20,20,0,0,1-40,0v-20Z"/><path class="cls-6" d="M126.67,146.67,120,160v66.67H100L80,153.33l6.67-20Z"/><path class="cls-6" d="M180,146.67l40,40L206.67,200,180,186.67Z"/><path class="cls-7" d="M154.8,304.53,120,393.33H100l13.33-86.66v-80h40Z"/><path class="cls-8" d="M6.67,273.33H93.33V380H6.67Z"/><path class="cls-6" d="M300,60l13.33-13.33L326.67,60H340V80a20,20,0,0,1-40,0Z"/><path class="cls-6" d="M260,157.77v28.9H233.33v-20Z"/><path class="cls-9" d="M180,193.33l13.33,200h-20L120,226.67V193.33Z"/><path class="cls-6" d="M333.33,160v26.67H306.67v-20Z"/><path d="M393.33,180H383.08a26.57,26.57,0,0,0,3.59-13.33A91.85,91.85,0,0,0,377,125.8L372.63,117a6.66,6.66,0,0,0-3-3l-15.38-7.69A22.84,22.84,0,0,0,370.92,73.6l-4.25-8.51V60a46.71,46.71,0,0,0-46.75-46.68H318.8a45.48,45.48,0,0,0-45.47,45.48v6.28l-4.25,8.51a22.84,22.84,0,0,0,20.19,33.06l-12.7,7.62a6.69,6.69,0,0,0-3.11,4.41l-5.91,29.54-36.32,12.11a6.67,6.67,0,0,0-4.56,6.33V180h-3.91l-36.09-36.09V104.38a33.1,33.1,0,0,0-9.77-23.57L163,66.87a26.54,26.54,0,0,0,3.71-13.54V22A22,22,0,0,0,132.43,3.7L116.3,14.45a6.69,6.69,0,0,0-3,5.55V53.33A26.54,26.54,0,0,0,117,66.87l-17.3,17.3a33.5,33.5,0,0,0-8.06,13l-18,54a6.6,6.6,0,0,0-.11,3.86l20,73.33a6.66,6.66,0,0,0,6.43,4.91h8.57l-1.89,72.74L100,349.49V273.33a6.66,6.66,0,0,0-6.67-6.66h-20V233.33a6.66,6.66,0,0,0-6.66-6.66H33.33a6.66,6.66,0,0,0-6.66,6.66h0v33.34h-20A6.66,6.66,0,0,0,0,273.33H0V380a6.67,6.67,0,0,0,6.67,6.67H20v6.66a6.67,6.67,0,1,0,13.33,0v-6.66H66.67v6.66a6.67,6.67,0,1,0,13.33,0v-6.66H93.33a7.77,7.77,0,0,0,1-.08l-.88,5.73a6.67,6.67,0,0,0,5.58,7.6,6.77,6.77,0,0,0,1,.08h20a6.67,6.67,0,0,0,6.21-4.23l22.52-57.46L167,395.36a6.67,6.67,0,0,0,6.35,4.64h220a6.66,6.66,0,0,0,6.67-6.67h0V186.67a6.66,6.66,0,0,0-6.67-6.67ZM40,240H60v26.67H40ZM86.67,373.33H13.33V280H26.67v13.33H40V280H60v13.33H73.33V280H86.67ZM365.09,131.76a78.32,78.32,0,0,1,8.24,34.91A13.35,13.35,0,0,1,360,180H340V165.21l21.62-5.41-3.24-12.93-11.71,2.92V117.45l15,7.52ZM333.33,80a13.33,13.33,0,1,1-26.66,0V62.76l6.66-6.67L322,64.71a6.68,6.68,0,0,0,4.72,2h6.66Zm-18.15,26.67h9.91l8.24,4.12v42.34l-26.66,6.66v-48Zm-1.85,65.2,13.34-3.33V180H313.33ZM280,83.82a9.62,9.62,0,0,1,1-4.25l5-9.92a6.61,6.61,0,0,0,.71-3V58.82a32.14,32.14,0,0,1,32.12-32.15h1a33.37,33.37,0,0,1,23.75,9.77A33,33,0,0,1,353.33,60v6.66a6.6,6.6,0,0,0,.71,3L359,79.56a9.5,9.5,0,0,1-8.51,13.77h-7.4A26.57,26.57,0,0,0,346.67,80V60A6.67,6.67,0,0,0,340,53.33H329.43L318.05,42a6.68,6.68,0,0,0-9.43,0L295.29,55.29a6.66,6.66,0,0,0-2,4.71V80a26.57,26.57,0,0,0,3.59,13.33h-7.41A9.52,9.52,0,0,1,280,83.82Zm-4.56,75.84a6.67,6.67,0,0,0,4.43-5L286,124.2l7.37-4.43V180H266.67V162.58ZM240,171.47,253.33,167v13H240Zm-17.24,21.86H386.67v20H188l-1-15.73L203.69,206a6.65,6.65,0,0,0,7.69-1.25Zm-12.19-6.66-5.22,5.22-18.68-9.34V162.76ZM126.67,53.33V40h26.66V53.33a13.33,13.33,0,1,1-26.66,0Zm0-29.76,13.16-8.78A8.69,8.69,0,0,1,153.33,22v4.65H126.67Zm-22.34,77.84a20,20,0,0,1,4.84-7.81l17.29-17.3a26.64,26.64,0,0,0,27.08,0l13.94,13.94a19.84,19.84,0,0,1,5.85,14.14v82.29H126.67v-25.1L146,123,134,117l-10.75,21.49L95.1,129.12ZM87,153.53l3.92-11.76,26.39,8.79L114,157a6.57,6.57,0,0,0-.71,3v60h-8.24Zm28.49,233.14h-7.68l12.15-79a6,6,0,0,0,.08-.84l1.4-53.94,20.89,65.29Zm64.55,0h-1.8l-51.53-161V200h47.09l12.45,186.67Zm19.57,0-10.67-160H386.67v160Z"/><path d="M286.67,353.33H300v13.34H286.67Z"/><path d="M313.33,353.33h53.34v13.34H313.33Z"/><path d="M326.67,326.67h40V340h-40Z"/></svg>