<svg id="Capa_1" data-name="Capa 1" xmlns="http://www.w3.org/2000/svg" viewBox="0 0 400 400"><defs><style>.cls-1{fill:#eaf7fc;}.cls-2{fill:#c4dc9c;}.cls-3{fill:#99c355;}.cls-4{fill:#5bc0e6;}.cls-5{fill:#7fceec;}.cls-6{fill:#57758c;}</style></defs><title>iconos</title><path class="cls-1" d="M313.67,49,331.8,63,360,66.77a3.49,3.49,0,0,1,3.9,3,3.45,3.45,0,0,1-.7,2.57L339,87.76,330.27,115a3.5,3.5,0,0,1-6.23-1.69L313.24,87,295.1,73,274,100.39a3,3,0,0,1-4.25.56h0L264,96.56a6.09,6.09,0,0,1-1.73-7.51l14.83-29.9L238.94,29.66A15.19,15.19,0,1,1,257.4,5.54l.11.08,38.18,29.49,25.19-21.89a6.06,6.06,0,0,1,7.7-.23l5.67,4.39a3,3,0,0,1,.55,4.26Z"/><path class="cls-2" d="M205.75,131a12.2,12.2,0,0,1-5.36,12.18l-19,12.48A12.18,12.18,0,0,0,176,168.1l2.57,13.41a12.2,12.2,0,0,0,6.68,8.7l13.39,6.45a12.19,12.19,0,0,1,6.71,13.14l-4.88,27.09a12.19,12.19,0,0,1-23.06,3l-4.9-10.56a12.22,12.22,0,0,0-11.06-7.06H141.65a12.2,12.2,0,0,0-7,2.21l-13.34,9.37a12.19,12.19,0,0,1-9.82,1.88l-23-5.46h0A113.56,113.56,0,0,1,200,96Z"/><path class="cls-3" d="M113.14,230.25h0a113.59,113.59,0,0,1,87.3-131.62L200,96A113.59,113.59,0,0,0,88.46,230.25h0l23,5.46a12.19,12.19,0,0,0,9.82-1.88L123,232.6Z"/><path class="cls-4" d="M290.69,141.33l-12.64,9a20,20,0,0,0-7.79,11.36L267.6,172.1a20,20,0,0,0,7.07,20.77,20,20,0,0,1,7.22,20.18l-5.38,24a20.11,20.11,0,0,1-5.46,9.86l-4.7,4.65A20.07,20.07,0,0,0,260.53,268l3.81,34.89h0A113.47,113.47,0,0,1,88.46,230.25h0l23,5.46a12.19,12.19,0,0,0,9.82-1.88l13.34-9.37a12.2,12.2,0,0,1,7-2.21h19.84a12.22,12.22,0,0,1,11.06,7.06l4.9,10.56a12.19,12.19,0,0,0,23.06-3l4.88-27.09a12.19,12.19,0,0,0-6.71-13.14l-13.39-6.45a12.2,12.2,0,0,1-6.68-8.7L176,168.1a12.18,12.18,0,0,1,5.3-12.49l19-12.48A12.2,12.2,0,0,0,205.75,131L200,96a113.22,113.22,0,0,1,90.69,45.31Z"/><path class="cls-5" d="M114.37,236a12.14,12.14,0,0,1-2.89-.32l-23-5.46h0A113.49,113.49,0,0,0,200,322.89a114.74,114.74,0,0,0,12.29-.67A113.51,113.51,0,0,1,114.37,236Z"/><path class="cls-2" d="M290.69,141.33a113.45,113.45,0,0,1-22.56,158.84q-1.86,1.4-3.78,2.72h0L260.53,268a20.07,20.07,0,0,1,5.82-16.42l4.7-4.65a20.11,20.11,0,0,0,5.46-9.86l5.38-24a20,20,0,0,0-7.22-20.18,20,20,0,0,1-7.07-20.77l2.66-10.41a20,20,0,0,1,7.79-11.36Z"/><path class="cls-6" d="M383.24,204.22a5.25,5.25,0,0,1,5.24,5.24,189.61,189.61,0,0,1-1.9,26.82,5.23,5.23,0,0,1-5.17,4.5,6.3,6.3,0,0,1-.75-.05,5.26,5.26,0,0,1-4.45-5.93,179,179,0,0,0,1.8-25.34,5.24,5.24,0,0,1,5.23-5.24Z"/><path class="cls-6" d="M386.58,182.65a5.23,5.23,0,0,1-4.44,5.92h0a4.73,4.73,0,0,1-.75.05,5.22,5.22,0,0,1-5.17-4.5,175.5,175.5,0,0,0-5.38-24.81,5.24,5.24,0,1,1,10.05-2.95h0A186,186,0,0,1,386.58,182.65Z"/><path class="cls-6" d="M374.92,264.46a5.23,5.23,0,0,1,3.25,6.65h0a188.54,188.54,0,0,1-10.6,24.73,5.25,5.25,0,0,1-4.66,2.84,5.14,5.14,0,0,1-2.4-.6,5.23,5.23,0,0,1-2.25-7h0a176.73,176.73,0,0,0,10-23.35,5.23,5.23,0,0,1,6.66-3.23Z"/><path class="cls-6" d="M367.56,123.09a5.23,5.23,0,0,1-9.3,4.8h0A178.84,178.84,0,0,0,345,106.23a5.24,5.24,0,0,1,8.48-6.15l0,.07a186,186,0,0,1,14,22.94Z"/><path class="cls-6" d="M347.28,318.63a5.23,5.23,0,0,1,.87,7.35h0a189.46,189.46,0,0,1-18.1,19.89,5.23,5.23,0,1,1-7.3-7.5l.08-.07a180.12,180.12,0,0,0,17.1-18.79,5.23,5.23,0,0,1,7.35-.88Z"/><path class="cls-6" d="M303.46,360.81A5.23,5.23,0,0,1,301.9,368h0a187.19,187.19,0,0,1-23.59,12.9,5.23,5.23,0,1,1-4.46-9.47l.11-.05a178.68,178.68,0,0,0,22.27-12.18,5.23,5.23,0,0,1,7.23,1.57Z"/><path class="cls-6" d="M248.3,386.35a5.24,5.24,0,0,1-3.85,6.32h0a188.87,188.87,0,0,1-26.52,4.42l-.5,0a5.24,5.24,0,0,1-.49-10.45,177,177,0,0,0,25-4.18A5.24,5.24,0,0,1,248.3,386.35Z"/><path class="cls-6" d="M217.92,21.82a5.24,5.24,0,0,1-.49,10.45,4.26,4.26,0,0,1-.5,0,182.51,182.51,0,0,0-25.4-.6A5.24,5.24,0,0,1,191,21.19,194.55,194.55,0,0,1,217.92,21.82Z"/><path class="cls-6" d="M183.08,386.67a5.24,5.24,0,0,1-.49,10.45l-.5,0a190.36,190.36,0,0,1-26.52-4.43A5.24,5.24,0,0,1,158,382.49a177,177,0,0,0,25.05,4.18Z"/><path class="cls-6" d="M161.88,30.11A5.22,5.22,0,0,1,158,36.42h0a177.73,177.73,0,0,0-24.19,7.73,5.24,5.24,0,0,1-3.9-9.72,185.42,185.42,0,0,1,25.63-8.18,5.22,5.22,0,0,1,6.31,3.83v0Z"/><path class="cls-6" d="M126,371.42a5.24,5.24,0,0,1-2.18,10,5.09,5.09,0,0,1-2.17-.48A188.2,188.2,0,0,1,98.08,368a5.23,5.23,0,1,1,5.67-8.8A179.58,179.58,0,0,0,126,371.42Z"/><path class="cls-6" d="M105.34,52.44a5.24,5.24,0,0,1-1.57,7.24h0A179.55,179.55,0,0,0,83.44,74.92,5.24,5.24,0,1,1,76.54,67l0,0A188.89,188.89,0,0,1,98.1,50.88,5.25,5.25,0,0,1,105.34,52.44Z"/><path class="cls-6" d="M77.16,338.29a5.23,5.23,0,0,1-7.23,7.57A191.58,191.58,0,0,1,51.83,326a5.24,5.24,0,0,1,8.23-6.48A181.24,181.24,0,0,0,77.16,338.29Z"/><path class="cls-6" d="M59.2,92.06a5.24,5.24,0,0,1,.87,7.36,180.13,180.13,0,0,0-14.26,21,5.22,5.22,0,0,1-4.53,2.62,5.13,5.13,0,0,1-2.62-.71,5.24,5.24,0,0,1-1.91-7.15,188.45,188.45,0,0,1,15.1-22.26,5.23,5.23,0,0,1,7.35-.88Z"/><path class="cls-6" d="M41.74,291a5.23,5.23,0,1,1-9.3,4.8,187.83,187.83,0,0,1-10.6-24.72,5.23,5.23,0,1,1,9.89-3.42,178,178,0,0,0,10,23.34Z"/><path class="cls-6" d="M28.5,144.56a5.23,5.23,0,0,1,3.24,6.65h0a177.79,177.79,0,0,0-6.56,24.53A5.25,5.25,0,0,1,20.05,180a8.26,8.26,0,0,1-1-.09,5.23,5.23,0,0,1-4.15-6.12h0a188.23,188.23,0,0,1,6.94-26A5.24,5.24,0,0,1,28.5,144.56Z"/><path class="cls-6" d="M23.78,234.8a5.23,5.23,0,0,1-4.44,5.92h0a6.3,6.3,0,0,1-.75.05,5.22,5.22,0,0,1-5.17-4.5,190.86,190.86,0,0,1-1.9-26.81,5.24,5.24,0,0,1,10.47,0A180.72,180.72,0,0,0,23.78,234.8Z"/><path class="cls-6" d="M187.51,33.1a5.55,5.55,0,0,0,4,1.43,180.13,180.13,0,0,1,25.34.59,4.89,4.89,0,0,0,.54,0A5.65,5.65,0,0,0,218,23.88,192.15,192.15,0,0,0,191,23.25a5.65,5.65,0,0,0-3.51,9.85Z"/><path class="cls-6" d="M131.89,47.41A5.61,5.61,0,0,0,134,47a175.9,175.9,0,0,1,24.13-7.71,5.65,5.65,0,1,0-2.65-11,188.92,188.92,0,0,0-25.68,8.2,5.65,5.65,0,0,0,2.1,10.89Z"/><path class="cls-6" d="M104,62.49a5.65,5.65,0,0,0-6-9.57l-.12.08A191.38,191.38,0,0,0,76.31,69.16a5.65,5.65,0,0,0,7.4,8.53h0A179.54,179.54,0,0,1,104,62.49Z"/><path class="cls-6" d="M267.36,26.56a5.84,5.84,0,1,0,1.06,8.2,5.83,5.83,0,0,0-1.06-8.2Z"/><path class="cls-6" d="M281.79,37.7A5.86,5.86,0,1,0,284,41.59a5.84,5.84,0,0,0-2.22-3.89Z"/><path class="cls-6" d="M296.21,48.85a5.83,5.83,0,1,0,2.23,3.88,5.85,5.85,0,0,0-2.23-3.88Z"/><path class="cls-6" d="M310.64,60a5.84,5.84,0,1,0,1.06,8.2,5.85,5.85,0,0,0-1.06-8.2Z"/><path class="cls-6" d="M241.88,384.55a176.1,176.1,0,0,1-25,4.17,5.65,5.65,0,0,0,.52,11.27,4.87,4.87,0,0,0,.54,0,189.74,189.74,0,0,0,26.58-4.44,5.65,5.65,0,1,0-2.65-11Z"/><path class="cls-6" d="M183.11,388.73a177.54,177.54,0,0,1-25-4.17,5.65,5.65,0,1,0-2.65,11h0A189.74,189.74,0,0,0,182.05,400l.54,0a5.64,5.64,0,0,0,.52-11.26Z"/><path class="cls-6" d="M350.22,100.08a5.65,5.65,0,0,0-5.53,8.85,178.71,178.71,0,0,1,13.21,21.62,5.64,5.64,0,0,0,10.14-5,2.26,2.26,0,0,0-.11-.22,190.19,190.19,0,0,0-14-23,5.62,5.62,0,0,0-3.67-2.29Z"/><path class="cls-6" d="M296,361.36a179.16,179.16,0,0,1-22.22,12.15,5.65,5.65,0,1,0,4.69,10.27h0a188,188,0,0,0,23.64-12.93,5.64,5.64,0,0,0-6.11-9.49Z"/><path class="cls-6" d="M347.53,320.77a5.65,5.65,0,0,0-7.93.94h0a177.14,177.14,0,0,1-17.06,18.75,5.65,5.65,0,0,0,7.8,8.18,189.17,189.17,0,0,0,18.13-19.94A5.65,5.65,0,0,0,347.53,320.77Z"/><path class="cls-6" d="M375.81,186.65a5.68,5.68,0,0,0,5.58,4.85,5.52,5.52,0,0,0,.81-.06,5.65,5.65,0,0,0,4.79-6.38,189.38,189.38,0,0,0-5.7-26.35,5.65,5.65,0,1,0-10.84,3.18h0a175.86,175.86,0,0,1,5.36,24.76Z"/><path class="cls-6" d="M375.06,266.53a5.64,5.64,0,0,0-7.18,3.49,177.37,177.37,0,0,1-10,23.3,5.64,5.64,0,1,0,9.88,5.46l.15-.28a188.9,188.9,0,0,0,10.63-24.79,5.65,5.65,0,0,0-3.49-7.18Z"/><path class="cls-6" d="M19,182.78a5.63,5.63,0,0,0,6.6-4.48h0a176.7,176.7,0,0,1,6.55-24.48,5.65,5.65,0,0,0-10.68-3.69h0a188.59,188.59,0,0,0-7,26A5.66,5.66,0,0,0,19,182.78Z"/><path class="cls-6" d="M126.22,373.51A176.83,176.83,0,0,1,104,361.34a5.65,5.65,0,1,0-6.12,9.5,188.32,188.32,0,0,0,23.66,12.94,5.55,5.55,0,0,0,2.34.52,5.65,5.65,0,0,0,2.36-10.79Z"/><path class="cls-6" d="M24.19,237.2a179.61,179.61,0,0,1-1.78-25.28,5.65,5.65,0,0,0-11.3-.13v.13A192,192,0,0,0,13,238.8a5.68,5.68,0,0,0,5.58,4.85,5.52,5.52,0,0,0,.81-.06A5.65,5.65,0,0,0,24.19,237.2Z"/><path class="cls-6" d="M383.24,206.28a5.65,5.65,0,0,0-5.65,5.64,179.86,179.86,0,0,1-1.78,25.29,5.65,5.65,0,0,0,4.79,6.38,5.52,5.52,0,0,0,.81.06A5.67,5.67,0,0,0,387,238.8a191.85,191.85,0,0,0,1.9-26.88,5.65,5.65,0,0,0-5.65-5.64Z"/><path class="cls-6" d="M32.12,270a5.65,5.65,0,1,0-10.67,3.7,188,188,0,0,0,10.62,24.78,5.65,5.65,0,0,0,10.15-5l-.12-.22a177.32,177.32,0,0,1-10-23.3Z"/><path class="cls-6" d="M60.38,321.7a5.65,5.65,0,0,0-8.87,7h0a192.29,192.29,0,0,0,18.13,19.93,5.65,5.65,0,0,0,7.8-8.17A180.33,180.33,0,0,1,60.38,321.7Z"/><path class="cls-6" d="M59.46,94.21a5.65,5.65,0,0,0-7.93.94A189.27,189.27,0,0,0,36.4,117.46a5.65,5.65,0,1,0,9.77,5.66,176.55,176.55,0,0,1,14.23-21A5.66,5.66,0,0,0,59.46,94.21Z"/><path class="cls-6" d="M325.3,123.44a8.41,8.41,0,0,0,8.87-3A5,5,0,0,0,335,119l8.2-25.52L365.83,79a4.73,4.73,0,0,0,1.26-1.14,8.42,8.42,0,0,0-7-13.56l-26.35-3.53L320.59,50.57,338.7,27.12a8,8,0,0,0-1.43-11.18h0l-5.68-4.38a11,11,0,0,0-13.95.41L295.51,31.2l-35-27A20.13,20.13,0,0,0,235.92,36l35,27-13,26.27a11,11,0,0,0,3.13,13.6l5.67,4.39a7.92,7.92,0,0,0,4.86,1.66,8.89,8.89,0,0,0,1-.06,7.94,7.94,0,0,0,5.29-3L296,82.42l13.19,10.19,10.11,24.55a8.4,8.4,0,0,0,6,6.28Zm-7.5-35.81a4.92,4.92,0,0,0-1.55-2L290.9,66a4.93,4.93,0,1,0-6,7.81l3.31,2.55-17,22-4.17-3.23a1.14,1.14,0,0,1-.33-1.41l14.82-29.9a4.93,4.93,0,0,0-1.4-6.1L242,28.22A10.26,10.26,0,1,1,254.5,12h0l38.18,29.5a4.93,4.93,0,0,0,6.25-.19L324.11,19.4a1.15,1.15,0,0,1,1.45,0l4.18,3.22-17,22L309.47,42a4.93,4.93,0,0,0-6,7.81h0l25.35,19.58a4.81,4.81,0,0,0,2.36,1l24.68,3.3-19.47,12.4a4.9,4.9,0,0,0-2.05,2.66l-7,21.91Z"/><path class="cls-6" d="M200,93.56A118.37,118.37,0,1,0,318.37,211.92,118.49,118.49,0,0,0,200,93.56ZM91.5,211.92A108.63,108.63,0,0,1,195.83,103.51l5,30.7a7.29,7.29,0,0,1-3.19,7.26l-19.05,12.47a17.07,17.07,0,0,0-7.44,17.55l2.56,13.41a17.23,17.23,0,0,0,9.39,12.22l13.39,6.44a7.29,7.29,0,0,1,4,7.83l-4.87,27.09a7.27,7.27,0,0,1-13.74,1.77L177,229.69a17.21,17.21,0,0,0-15.54-9.91H141.64a17.08,17.08,0,0,0-9.84,3.11l-13.34,9.37a7.27,7.27,0,0,1-5.85,1.12l-19.82-4.7a109.42,109.42,0,0,1-1.29-16.76ZM255.63,271l3.48,31.88A108.44,108.44,0,0,1,95,239.34L110.34,243a17.1,17.1,0,0,0,13.79-2.65L137.47,231a7.24,7.24,0,0,1,4.17-1.32h19.84a7.31,7.31,0,0,1,6.59,4.2L173,244.41a17,17,0,0,0,13.76,9.82,15.73,15.73,0,0,0,1.82.1,17,17,0,0,0,13.67-6.87,17.35,17.35,0,0,0,3.14-7.23l4.87-27.09a17.16,17.16,0,0,0-9.42-18.46l-13.39-6.45a7.27,7.27,0,0,1-4-5.18l-2.56-13.41A7.25,7.25,0,0,1,184,162.2l19.05-12.48a17.12,17.12,0,0,0,7.52-17.1l-4.77-29a108.37,108.37,0,0,1,77.74,39.22l-8.39,6a25,25,0,0,0-9.71,14.16l-2.67,10.41a25,25,0,0,0,8.82,25.87,15.2,15.2,0,0,1,5.45,15.22l-5.39,24a15,15,0,0,1-4.11,7.43l-4.69,4.65A24.86,24.86,0,0,0,255.63,271Zm52.87-59.07a108.34,108.34,0,0,1-40.2,84.24l-2.86-26.24a15,15,0,0,1,4.39-12.38l4.69-4.65a24.87,24.87,0,0,0,6.8-12.29l5.38-24a25.08,25.08,0,0,0-9-25.15,15.1,15.1,0,0,1-5.34-15.65L275,165.38a15.11,15.11,0,0,1,5.87-8.57l8.61-6.13a107.84,107.84,0,0,1,19,61.24Z"/></svg>